Coordinates
version=1
nRows=16
nColumns=36
inDegrees=yes

Units are S.I. units (second, meters, Newtons, ...)
If the header above contains a line with 'inDegrees', this indicates whether rotational values are in degrees (yes) or radians (no).

endheader
time	pelvis_tilt	pelvis_list	pelvis_rotation	pelvis_tx	pelvis_ty	pelvis_tz	hip_flexion_r	hip_adduction_r	hip_rotation_r	knee_angle_r	knee_angle_r_beta	ankle_angle_r	subtalar_angle_r	mtp_angle_r	hip_flexion_l	hip_adduction_l	hip_rotation_l	knee_angle_l	knee_angle_l_beta	ankle_angle_l	subtalar_angle_l	mtp_angle_l	lumbar_extension	lumbar_bending	lumbar_rotation	arm_flex_r	arm_add_r	arm_rot_r	elbow_flex_r	pro_sup_r	arm_flex_l	arm_add_l	arm_rot_l	elbow_flex_l	pro_sup_l
      2.91250000	     -5.53515105	     -0.52985263	      4.03004801	     -0.18154921	      1.48475110	     -0.06982458	     16.68348247	     -1.43898246	     -3.34514351	     17.93644471	      0.31305002	     -9.56723195	     -0.95249290	     -7.49999987	     20.87062354	     -3.97208958	    -12.50373257	     18.64475882	      0.32541243	    -17.63701133	     -3.08674128	     -7.49999987	    -13.10644136	      3.32055241	      0.61888920	     -0.38346102	    -19.24020686	      5.62060272	     70.79512754	     76.70959127	      5.49180586	    -19.74490988	     24.79354084	     57.74056565	     64.38657200
      2.91666670	     -5.88031467	     -0.25722843	      3.79042119	     -0.17251582	      1.47647464	     -0.07170791	     17.15093871	     -1.84104086	     -3.02564987	     17.67900059	      0.30855677	     -9.11563001	     -1.28259952	     -7.49999987	     21.09757608	     -3.69473800	    -13.01506296	     18.00992350	      0.31433246	    -17.47557165	     -2.87402434	     -7.49999987	    -12.39490591	      2.95855596	      0.93396570	     -2.21897489	    -19.63614340	      5.93283278	     70.82901474	     76.94104602	      3.69376881	    -20.47518129	     25.30902560	     58.21336988	     64.57214371
      2.92083330	     -5.98539101	     -0.12144565	      3.56988416	     -0.16662908	      1.46990956	     -0.06798122	     17.34680287	     -1.81196744	     -2.55684619	     17.11464621	      0.29870693	     -8.65587900	     -1.33376601	     -7.49999987	     21.16681847	     -3.73538985	    -13.44309044	     17.26382675	      0.30131062	    -17.51985231	     -2.76708294	     -7.49999987	    -12.21170979	      2.62664500	      1.09714794	     -3.73208816	    -19.75695762	      6.24935873	     71.01736988	     75.90420687	      1.92214177	    -21.33188023	     25.36635549	     59.02462375	     64.35231047
      2.92500000	     -6.14321539	     -0.07316915	      3.41662928	     -0.15795817	      1.46354795	     -0.06992014	     17.60783895	     -1.92441053	     -2.50841518	     16.60053968	      0.28973408	     -8.70578556	     -1.36450549	     -7.49999987	     21.21071425	     -3.70203328	    -13.84706435	     16.32851216	      0.28498630	    -17.64666541	     -2.33649664	     -7.49999987	    -11.75307121	      2.48188577	      1.29531110	     -5.38599807	    -20.11584559	      6.56922765	     71.16179424	     76.35439121	      0.19776580	    -22.01527219	     25.72208719	     59.32598045	     64.57433289
      2.92916670	     -6.19289884	     -0.00396080	      3.32928380	     -0.15011854	      1.45536415	     -0.07166650	     17.67959801	     -2.12398107	     -2.52527880	     16.04856979	      0.28010038	     -8.96497235	     -1.39420485	     -7.49999987	     21.12968526	     -3.55018844	    -14.49290241	     15.38589054	      0.26853445	    -17.71469588	     -2.12947843	     -7.49999987	    -11.57834854	      2.34797094	      1.35417303	     -7.04817349	    -20.49426888	      6.64056849	     71.66616914	     77.41936070	     -1.81807677	    -22.78231848	     25.68328697	     60.20663510	     65.02131163
      2.93333330	     -6.33461659	     -0.01966978	      3.13722906	     -0.14445661	      1.44883956	     -0.07150282	     17.91066646	     -2.26482898	     -2.55686108	     15.56496185	      0.27165983	     -9.21457047	     -1.53390676	     -7.49999987	     21.29386698	     -3.54050932	    -14.86878592	     14.81461162	      0.25856375	    -17.73685218	     -2.15936853	     -7.49999987	    -11.27367654	      2.33983364	      1.45884529	     -8.43584009	    -20.89814304	      6.97002930	     71.66897392	     76.87980272	     -3.71603812	    -23.20711425	     25.62879358	     60.52975204	     64.85359977
      2.93750000	     -6.50980529	     -0.04538325	      2.97535519	     -0.13868745	      1.44247379	     -0.07161850	     18.27921249	     -2.33486252	     -2.24914268	     15.23059169	      0.26582397	     -9.64451663	     -1.85149457	     -7.49999987	     21.63664228	     -3.54457571	    -15.04116096	     14.42099550	      0.25169385	    -17.90383306	     -2.15776952	     -7.49999987	    -11.12661726	      2.40024159	      1.28530073	     -9.52715424	    -21.37929696	      7.38087488	     71.68216906	     80.03723765	     -5.92822591	    -23.55223886	     24.80036615	     61.13086211	     65.99891724
      2.94166670	     -6.63629837	     -0.03477093	      2.90019835	     -0.13417378	      1.43611140	     -0.07288499	     18.62719668	     -2.40219943	     -2.12739665	     14.73242838	      0.25712938	     -9.92443414	     -1.83794311	     -7.49999987	     21.94096164	     -3.47231216	    -15.10710365	     13.96817438	      0.24379063	    -18.15084099	     -2.36692728	     -7.49999987	    -11.12568752	      2.43346563	      1.29931594	    -11.14917280	    -21.89895691	      7.48531257	     72.27503955	     79.10514279	     -7.67613098	    -23.99190374	     24.77782358	     61.63063736	     65.70304300
      2.94583330	     -6.82057630	     -0.11227019	      2.84289006	     -0.12884581	      1.42524066	     -0.07346819	     19.17408463	     -2.40681592	     -2.25773000	     14.43964917	      0.25201942	    -10.46564060	     -2.00838641	     -7.49999987	     22.50282756	     -3.57588983	    -15.58348349	     13.68125277	      0.23878291	    -18.17678706	     -2.48912794	     -7.49999987	    -11.00280694	      2.58411159	      1.41662643	    -12.81374251	    -22.57077108	      7.46948326	     72.81409772	     79.23634228	     -9.33705871	    -24.45404537	     24.96874207	     62.00531228	     65.73442512
      2.95000000	     -6.99463352	     -0.09179941	      2.73167451	     -0.12698008	      1.42194986	     -0.07051939	     19.80234698	     -2.39708169	     -2.42122942	     13.93829609	      0.24326916	    -11.06175951	     -1.51726560	     -7.49999987	     23.02976919	     -3.62789596	    -15.99873609	     13.21311042	      0.23061228	    -18.77783667	     -2.57666525	     -7.49999987	    -11.24656923	      2.57068357	      1.47848225	    -14.15230561	    -22.91800519	      7.29619202	     73.45040405	     78.42112006	    -10.96746793	    -24.96083695	     24.66777802	     62.55251833	     65.39231771
      2.95416670	     -6.98901228	     -0.19619782	      2.55492565	     -0.12188397	      1.41677609	     -0.07233766	     20.14656212	     -2.40031386	     -2.73476914	     13.44480070	      0.23465604	    -12.21662764	     -1.39327272	     -7.49999987	     23.31758056	     -3.74778722	    -16.21554892	     12.57108427	      0.21940681	    -19.40441063	     -2.21746871	     -7.49999987	    -11.65551912	      2.76025537	      2.05505117	    -16.14896115	    -23.13098368	      5.95998989	     74.63802926	     79.67607010	    -12.09158246	    -25.27242223	     24.57682498	     62.94516179	     65.12664586
      2.95833330	     -7.06614522	     -0.31486926	      2.35742447	     -0.11730849	      1.40648815	     -0.06940968	     20.58856473	     -2.29398039	     -3.07472110	     12.88442784	      0.22487569	    -13.26758824	     -1.26825351	     -7.49999987	     23.72708711	     -3.99945223	    -16.69553440	     12.01389958	      0.20968210	    -20.13906888	     -2.00795300	     -7.49999987	    -11.84290539	      2.86363441	      2.27500522	    -17.55793253	    -23.63702799	      6.04234162	     75.04171523	     79.92569530	    -13.53435134	    -25.73528107	     24.65691147	     63.30748705	     65.09753483
      2.96250000	     -7.13782742	     -0.34259116	      2.17413952	     -0.11178653	      1.39883412	     -0.06998199	     20.90597557	     -2.27275190	     -3.14922498	     12.12123539	      0.21155547	    -14.08619554	     -0.76259136	     -7.49999987	     24.06910927	     -4.06364196	    -16.61889301	     11.37834018	      0.19858950	    -20.71130190	     -1.13727736	     -7.49999987	    -11.99403504	      2.89979831	      2.43800005	    -19.09134165	    -24.01986741	      5.77940993	     75.55099036	     80.14056125	    -15.11134009	    -26.25279782	     24.38662671	     63.81115860	     64.94092765
      2.96666670	     -7.08239049	     -0.32698258	      1.95286411	     -0.10308058	      1.38839738	     -0.06907367	     20.88571023	     -2.21333874	     -3.67964737	     11.07376895	      0.19327373	    -14.89927242	     -0.48066518	     -7.49999987	     24.17615560	     -4.17329214	    -17.01830452	     10.82386806	      0.18891214	    -21.24814226	     -0.45036777	     -7.49999987	    -12.04382220	      2.84436204	      2.70207282	    -20.70460762	    -24.31670016	      5.63926686	     75.89786516	     80.35077694	    -16.86347871	    -26.73116871	     24.14432418	     64.19215039	     64.73983318
      2.97083330	     -7.00926410	     -0.06786180	      1.90501039	     -0.09287689	      1.37743408	     -0.06889902	     20.59850626	     -2.40120030	     -4.40611648	      9.91635731	      0.17307308	    -15.28293943	      0.16956002	     -7.49999987	     24.06253176	     -3.98553444	    -17.13974441	     10.25552057	      0.17899260	    -21.77850592	      0.34642388	     -7.49999987	    -11.99429816	      2.46180347	      2.73607809	    -22.53085197	    -24.36264391	      5.34986144	     76.32367861	     80.55242203	    -19.17502428	    -27.41078493	     23.73293789	     64.99115107	     64.15823941
      2.97500000	     -7.02172607	      0.05324673	      2.12183648	     -0.08591585	      1.36584399	     -0.06763901	     20.47771908	     -2.45508563	     -5.00725889	      9.07480507	      0.15838523	    -15.03681030	      0.37450273	     -7.49999987	     24.19851111	     -3.91311492	    -17.37484278	      9.98631522	      0.17429408	    -21.78828257	      0.57921431	     -7.49999987	    -11.61443758	      2.20185812	      2.60822250	    -24.39002719	    -24.47075248	      5.56104177	     76.47154037	     80.66849206	    -21.32182206	    -28.24547648	     23.91569210	     65.30316408	     63.96697629
